<svg width="145" height="145" viewBox="0 0 145 145" fill="none" xmlns="http://www.w3.org/2000/svg">
<g clip-path="url(#clip0_524_635)">
<path d="M0 0H145V145H0V0Z" fill="#F4EAD5"/>
<path d="M53.2874 31.1025L39.8749 40.31L36.7574 57.0575V88.0875L35.4524 96.0625L31.8999 102.733L37.4824 96.0625L33.9299 107.01L38.5699 98.6725L40.4549 94.25L40.0924 104.11C40.0924 104.11 37.6999 112.447 38.0624 111.94C38.4249 111.432 41.7599 104.11 41.7599 104.11L44.3699 97.2225L43.4274 105.415L41.3974 113.39L44.9499 107.083L43.6449 114.115L47.1974 107.808L49.9524 101.138L49.3724 109.113L48.4299 115.058L51.1849 108.75L52.4899 102.08L52.8524 108.968L52.1274 116.218L54.1574 110.635L55.0999 116.58L59.5949 108.025L87.6524 108.243L89.8999 115.855L90.2624 107.3L91.7849 113.027L94.1774 114.55L92.5099 111.215L91.7849 103.82L95.8449 111.215L99.0349 113.825L96.6424 109.91L94.7574 102.298L98.3099 109.185L100.702 110.852L98.3099 105.27L98.0924 96.3525L101.645 105.85L102.37 109.91C102.37 109.91 103.095 105.85 102.95 104.908C102.732 103.965 100.702 94.685 100.702 94.685L105.56 106.358L107.082 107.3L103.167 89.6825L107.227 100.268L111.142 105.85L107.59 95.99L106.647 88.16L109.982 97.44C109.982 97.44 107.59 81.49 107.59 80.5475C107.59 79.605 106.575 59.45 106.575 59.45L106.285 46.835L82.5774 27.1875L53.2874 31.1025V31.1025Z" fill="#452C22"/>
<path d="M123.25 130.718L103.458 125.715L90.4075 118.538L89.32 98.0928H55.68L54.5925 118.538L41.5425 125.715L21.75 130.718L15.1525 145L12.9775 159.5H132.023L129.848 145L123.25 130.718Z" fill="#F0C7B1"/>
<path d="M55.68 98.0928L54.5925 118.538L41.5425 125.715L21.75 130.718L15.1525 145L12.9775 159.5H23.5625V145L25.52 132.168L42.775 127.528L60.6825 121.51L63.22 98.0928H55.68Z" fill="#D19271"/>
<path d="M88.0876 108.098L89.6826 105.343L89.3201 98.0928H55.6801L55.1001 109.62L65.1051 116.58H75.8351L88.0876 108.098Z" fill="#C27B55"/>
<path d="M67.2803 122.018L68.7303 127.745L73.7328 131.08C73.7328 131.08 67.5703 128.905 67.4253 128.47C67.2803 128.035 67.2803 122.018 67.2803 122.018Z" fill="#D19271"/>
<path d="M133.907 159.501L128.035 133.836L124.555 131.298L123.467 129.848L110.707 124.918L104.472 113.391L101.717 112.231L96.4248 105.706L89.6098 103.458L90.0448 111.433L89.1023 118.756L82.6498 125.353L76.7773 132.458L74.9648 136.083L73.7323 133.763L70.4698 131.008L62.3498 125.353L55.8973 118.756L54.9548 111.433L55.3898 103.458L48.5748 105.706L43.2823 112.231L40.5273 113.391L34.2923 124.918L21.5323 129.848L20.4448 131.298L16.9648 133.836L11.0923 159.501H133.907Z" fill="#233963"/>
<path d="M97.2948 136.881L86.4198 139.636L79.2423 139.781L79.1698 138.548L80.1123 138.476L79.6048 136.808L77.2848 137.026L77.2123 138.693L77.7923 138.621V139.781H76.2698L77.7923 139.926L77.8648 144.203L77.3573 149.568L78.5173 155.006L78.7348 158.486L80.6198 157.761L80.4023 154.063L78.9523 149.278L79.6048 143.986L79.3873 139.926L86.4198 140.433L97.8748 137.461L109.475 128.616L110.925 124.773L108.605 127.746L97.2948 136.881V136.881ZM73.9498 139.998L72.1373 139.853L72.2823 138.548L72.7173 138.621L73.5873 137.026L71.1948 135.358L69.7448 136.736L70.6148 138.403H70.6873V139.781L69.5998 139.708L50.7498 134.706L39.2948 126.731L40.6723 118.756L42.7748 116.001L50.7498 129.558L63.5823 134.778L52.8523 129.051L46.9798 120.061L48.5748 105.706L43.3548 112.158L40.5998 113.391L34.3648 124.846L21.5323 129.776L20.4448 131.226L16.9648 133.763L11.0923 159.501H18.4873L19.4298 149.133L21.8223 136.011L23.9248 137.896L25.8098 147.973L26.6798 159.501V147.756L24.7948 136.663L23.1998 133.546L24.2148 132.313L36.3223 127.963L50.0248 135.793L69.4548 140.288L70.5423 140.216L70.4698 142.681L71.4848 149.858C71.4848 149.858 69.3098 156.963 69.4548 157.036C69.6723 157.181 70.6873 159.066 70.7598 158.921C70.8323 158.703 73.2973 149.858 73.2973 149.858L71.9198 142.318L72.1373 140.071L73.9498 139.998V139.998ZM54.9548 111.433L55.3898 103.603L52.4898 107.301L51.9823 113.391L55.8973 118.828L54.9548 111.433ZM90.5523 119.408L95.4098 114.406L94.9023 106.576L89.6098 103.458L90.0448 111.433L89.1023 118.828L82.6498 125.426L76.7773 132.531L74.9648 136.156L79.6773 129.993L90.5523 119.408V119.408ZM77.4298 135.648L94.0323 132.023L102.152 122.308L104.472 113.391L101.717 112.158L99.9773 121.583L93.7423 131.081L77.4298 135.648V135.648ZM118.392 142.681L118.972 158.341L119.335 143.551L122.597 134.053L118.392 142.681Z" fill="#152B54"/>
<path d="M99.615 120.133L100.485 112.52L96.135 108.025L97.15 115.493L89.6825 127.165L79.5325 133.473L93.0175 130.21L99.615 120.133ZM109.475 124.628L104.98 117.305C105.125 117.74 103.457 124.193 103.457 124.193L95.99 133.183L84.7525 138.403L96.86 136.155L108.242 127.02L109.475 124.628V124.628ZM127.455 134.778L124.772 133.4L123.105 137.46L125.932 144.203L128.76 158.123L131.732 158.268L127.455 134.778V134.778ZM121.872 130.065L111.432 126.585L109.62 130.21L103.602 134.27L117.667 134.705L120.93 135.575L123.612 131.515L121.872 130.065V130.065ZM61.625 127.31L54.3025 119.843L51.62 114.478L50.605 114.913L52.8525 123.323L61.2625 129.92L71.7025 133.98L73.95 136.808L71.5575 132.748L61.625 127.31V127.31ZM92.8725 118.248L80.765 129.92L75.98 136.083L85.695 127.673L92.8725 118.248Z" fill="#344972"/>
<path d="M45.7471 66.5565C45.7471 66.5565 41.3971 66.049 38.0621 63.874C38.0621 63.874 35.5246 70.689 35.1621 74.314C35.1621 74.314 40.0196 83.739 42.4121 87.7265C42.4121 87.7265 46.1821 87.219 46.9796 86.7115L47.9946 80.6215L45.7471 66.5565V66.5565Z" fill="#F0C7B1"/>
<path d="M38.6425 65.2515C38.4975 64.9615 38.0625 63.874 38.0625 63.874C41.8325 64.164 45.82 64.889 45.82 64.889L47.995 80.549L46.98 86.639C46.1825 87.1465 42.4125 87.654 42.4125 87.654C41.9775 86.929 41.47 85.9865 40.89 85.044L42.775 85.769L44.95 84.609C44.95 84.609 45.4575 76.489 45.3125 76.2715C45.24 76.054 38.7875 65.5415 38.6425 65.2515V65.2515Z" fill="#E1AC8F"/>
<path d="M36.4668 73.1545L38.4968 69.167L42.2668 74.097L43.8618 80.9845L42.8468 82.362L39.7293 76.852L40.4543 73.4445L38.5693 70.5445L36.4668 73.1545Z" fill="#D19271"/>
<path d="M99.2524 66.5565C99.2524 66.5565 103.602 66.049 106.937 63.874C106.937 63.874 109.475 70.689 109.837 74.314C109.837 74.314 104.98 83.739 102.587 87.7265C102.587 87.7265 98.8174 87.219 98.0199 86.7115L97.0049 80.6215L99.2524 66.5565V66.5565Z" fill="#F0C7B1"/>
<path d="M106.357 65.2515C106.502 64.9615 106.937 63.874 106.937 63.874C103.167 64.164 99.1799 64.889 99.1799 64.889L97.0049 80.549L98.0199 86.639C98.8174 87.1465 102.587 87.654 102.587 87.654C103.022 86.929 103.53 85.9865 104.11 85.044L102.225 85.769L100.05 84.609C100.05 84.609 99.5424 76.489 99.6874 76.2715C99.7599 76.054 106.212 65.5415 106.357 65.2515V65.2515Z" fill="#E1AC8F"/>
<path d="M108.532 73.1545L106.502 69.167L102.732 74.097L101.137 80.9845L102.152 82.362L105.27 76.852L104.545 73.4445L106.43 70.5445L108.532 73.1545Z" fill="#D19271"/>
<path d="M100.122 43.5003C95.1197 35.0903 85.8397 29.3628 85.8397 29.3628C80.6197 28.2753 72.4997 27.6953 72.4997 27.6953C72.4997 27.6953 64.4522 28.2753 59.1597 29.3628C59.1597 29.3628 49.8797 35.0903 44.8772 43.5003C44.8772 43.5003 41.1797 54.0128 41.0347 61.4803L44.5872 86.0578L54.8822 104.038L67.1347 112.52H77.9372L90.1897 104.038L100.485 86.0578L104.037 61.4803C103.82 54.0128 100.122 43.5003 100.122 43.5003V43.5003Z" fill="#F0C7B1"/>
<path d="M67.2072 110.708L56.6222 101.79C56.6222 101.79 48.3572 86.6378 48.0672 86.0578C47.7772 85.4053 44.4422 61.1903 44.4422 61.1903C44.5872 57.7103 47.7047 45.6028 48.0672 45.0953C49.5897 42.7753 60.0297 32.0453 60.0297 32.0453L72.4272 29.0728L85.8397 29.3628C80.6197 28.2753 72.4997 27.6953 72.4997 27.6953C72.4997 27.6953 64.4522 28.2753 59.1597 29.3628C59.1597 29.3628 49.8797 35.0903 44.8772 43.5003C44.8772 43.5003 41.1797 54.0128 41.0347 61.4803L44.5872 86.0578L54.8822 104.038L67.1347 112.52H77.9372L90.1897 104.038L77.1397 111.578L67.2072 110.708Z" fill="#D19271"/>
<path d="M61.0737 93.6111L68.2222 94.3941L72.9347 95.9891L77.2847 94.0316L84.4187 93.9736L76.9947 92.7266H67.6422L61.0737 93.6111Z" fill="#DA7C87"/>
<path d="M64.4668 96.6201L69.0923 98.3819L76.7048 98.5994L79.9818 96.6926L76.8498 99.3244H69.0198L64.4668 96.6201Z" fill="#D19271"/>
<path d="M66.1195 69.3838L62.3495 66.0488L55.8245 66.1213L50.7495 68.8763C50.7495 68.8763 54.9545 71.9938 55.9695 72.4288L62.3495 72.1388L66.1195 69.3838V69.3838Z" fill="white"/>
<path d="M55.8248 70.9774L54.8823 68.2224L56.2598 65.5399L59.0873 64.6699L61.6973 66.0474L62.5673 68.8024L61.2623 71.4124L58.4348 72.3549L55.8248 70.9774Z" fill="#66724E"/>
<path d="M59.087 64.8881L61.5521 66.1931L62.422 68.8756L61.1171 71.3406L58.4345 72.2106L55.9695 70.9056L55.0995 68.2231L56.4046 65.7581L59.087 64.8881ZM59.087 64.4531L56.1146 65.3956L54.6646 68.1506L55.607 71.1231L58.362 72.5731L61.3345 71.6306L62.7845 68.8756L61.8421 65.9031L59.087 64.4531Z" fill="#455328"/>
<path d="M59.5948 66.4102L57.8548 66.4827L56.6948 67.7152V69.3827L57.9273 70.5427H59.6673L60.8273 69.3102V67.6427L59.5948 66.4102Z" fill="black"/>
<path d="M56.4772 66.121L57.1297 66.9185L56.2597 66.411L56.4772 66.121V66.121ZM57.9997 65.396V66.3385L57.5647 65.541L57.9997 65.396ZM59.2322 65.251L59.0147 66.1935L58.7972 65.251H59.2322ZM60.4647 65.9035L59.9572 66.4835L60.1022 65.686L60.4647 65.9035ZM61.5522 66.6285L60.6097 67.2085L61.3347 66.3385L61.5522 66.6285ZM61.9872 68.006L60.9722 68.0785L61.8422 67.6435L61.9872 68.006ZM62.0597 69.0935L61.1897 68.8035L62.1322 68.731L62.0597 69.0935ZM61.4072 70.1085L60.8272 69.601L61.6247 69.8185L61.4072 70.1085ZM60.8272 71.196L60.3197 70.2535L61.1172 70.906L60.8272 71.196V71.196ZM59.5222 71.631L59.4497 70.616L59.8847 71.486L59.5222 71.631ZM58.2172 71.7035L58.5797 70.8335L58.6522 71.776L58.2172 71.7035ZM56.7672 70.906L57.4197 70.2535L57.1297 71.1235L56.7672 70.906ZM55.8247 69.746L56.6222 69.5285L56.0422 70.1085L55.8247 69.746ZM55.5347 68.5135L56.4772 68.731L55.5347 68.876V68.5135ZM55.8972 67.136L56.4772 67.6435L55.6797 67.4985L55.8972 67.136Z" fill="#2F3C14"/>
<path d="M56.5493 66.7008L58.1443 68.1508L58.5793 67.8608L57.6368 65.9033L56.5493 66.7008Z" fill="white"/>
<path d="M59.5225 70.0361L59.885 70.7611L60.5375 70.4711L60.175 69.7461L59.5225 70.0361Z" fill="white"/>
<path d="M48.647 64.7433V73.3708L54.3745 79.4608H62.4945L68.222 73.3708V64.7433L62.4945 58.6533H54.3745L48.647 64.7433ZM50.822 68.8758L55.897 66.1208L62.422 66.0483L66.1195 69.3833L62.3495 72.2108L55.9695 72.5008C55.027 71.9208 50.822 68.8758 50.822 68.8758V68.8758Z" fill="#F0C7B1"/>
<path d="M66.4819 69.6733L65.6119 69.2383L62.2044 66.2658H55.8244L50.6044 69.1658L49.8794 69.3108L55.6069 65.6858L62.5669 65.6133L66.4819 69.6733Z" fill="black"/>
<path d="M65.8297 68.1514L62.9297 65.1789L55.8246 65.1064L49.9521 67.7164L55.8246 65.4689H62.8571L65.8297 68.1514Z" fill="#E1AC8F"/>
<path d="M78.8799 69.3829L82.5774 66.0479L89.1024 66.1204L94.1774 68.8754C94.1774 68.8754 89.9724 71.9929 88.9574 72.4279L82.5774 72.1379L78.8799 69.3829V69.3829Z" fill="white"/>
<path d="M83.3026 70.9774L82.4326 68.2224L83.7376 65.5399L86.5651 64.6699L89.1751 66.0474L90.1176 68.8024L88.7401 71.4124L85.9126 72.3549L83.3026 70.9774Z" fill="#66724E"/>
<path d="M86.5646 64.8881L89.0296 66.1931L89.8996 68.8756L88.5946 71.3406L85.9121 72.2106L83.4471 70.9056L82.5771 68.2231L83.8821 65.7581L86.5646 64.8881M86.5646 64.4531L83.5921 65.3956L82.1421 68.1506L83.0846 71.1231L85.8396 72.5731L88.8121 71.6306L90.2621 68.8756L89.3196 65.9031L86.5646 64.4531Z" fill="#455328"/>
<path d="M87.0724 66.4102L85.3324 66.4827L84.1724 67.7152V69.3827L85.4049 70.5427H87.1449L88.3049 69.3102V67.6427L87.0724 66.4102Z" fill="black"/>
<path d="M84.0277 66.121L84.6077 66.9185L83.7377 66.411L84.0277 66.121V66.121ZM85.4777 65.396V66.3385L85.1152 65.541L85.4777 65.396ZM86.7102 65.251L86.4927 66.1935L86.2752 65.251H86.7102ZM87.9427 65.9035L87.4352 66.4835L87.6527 65.686L87.9427 65.9035ZM89.0302 66.6285L88.0877 67.2085L88.8127 66.3385L89.0302 66.6285ZM89.4652 68.006L88.5227 68.0785L89.3202 67.6435L89.4652 68.006ZM89.5377 69.0935L88.6677 68.8035L89.6102 68.731L89.5377 69.0935ZM88.8852 70.1085L88.3052 69.601L89.1027 69.8185L88.8852 70.1085ZM88.3052 71.196L87.7977 70.2535L88.5952 70.906L88.3052 71.196V71.196ZM87.0002 71.631L86.9277 70.616L87.3627 71.486L87.0002 71.631ZM85.6952 71.7035L86.0577 70.8335L86.1302 71.776L85.6952 71.7035ZM84.2452 70.906L84.8977 70.2535L84.6077 71.1235L84.2452 70.906ZM83.3752 69.746L84.1002 69.5285L83.5202 70.1085L83.3752 69.746ZM83.0127 68.5135L83.9552 68.731L83.0127 68.876V68.5135ZM83.3752 67.136L83.9552 67.6435L83.2302 67.4985L83.3752 67.136Z" fill="#2F3C14"/>
<path d="M84.0273 66.7008L85.6223 68.1508L86.0573 67.8608L85.1148 65.9033L84.0273 66.7008Z" fill="white"/>
<path d="M87 70.0361L87.3625 70.7611L88.015 70.4711L87.6525 69.7461L87 70.0361Z" fill="white"/>
<path d="M90.6248 58.5801H82.5048L76.7773 64.6701V73.2976L82.5048 79.3876H90.6248L96.3523 73.2976V64.7426L90.6248 58.5801ZM88.9573 72.4276L82.5773 72.1376L78.8798 69.3826L82.5773 66.0476L89.1023 66.1201L94.1773 68.8751C94.1773 68.8751 89.9723 71.9201 88.9573 72.4276Z" fill="#F0C7B1"/>
<path d="M78.5176 69.6723L79.3876 69.2373L82.7951 66.2648H89.1751L94.3951 69.1648L95.1201 69.3098L89.3926 65.6848L82.4326 65.6123L78.5176 69.6723Z" fill="black"/>
<path d="M79.1699 68.1505L82.0699 65.178L89.1749 65.1055L95.0474 67.7155L89.1749 65.468H82.1424L79.1699 68.1505Z" fill="#E1AC8F"/>
<path d="M67.2801 58.4357L66.0476 62.3507L64.3076 63.0757L54.0851 61.4082L51.6926 62.2057L47.9951 64.5982C47.9951 64.5982 50.4601 60.7557 50.5326 60.4657C50.6051 60.2482 52.3451 57.4932 52.3451 57.4932L60.7551 57.9282L67.2801 58.4357Z" fill="#2A232B"/>
<path d="M56.1879 61.8427L55.8979 61.7702L55.0279 59.6677L52.2729 57.6377L53.5779 58.0002L55.8254 59.3052C55.8979 59.3052 56.0429 60.8277 56.1879 61.8427V61.8427ZM58.2904 62.1327L58.1454 62.1327C58.2179 61.4802 58.2179 60.3927 58.2179 60.2477C58.2179 60.1027 58.6529 59.1602 59.0154 58.3627L59.2329 58.4352C58.9429 59.5952 58.5804 61.2627 58.2904 62.1327V62.1327ZM61.6254 62.7127L65.6854 58.6527L66.1204 58.6527C65.5404 59.6677 64.6704 61.0452 64.5254 61.1902C64.3804 61.2627 63.2204 62.0602 62.1329 62.7852L61.6254 62.7127V62.7127ZM61.6979 58.6527L61.8429 58.6527L60.7554 61.2627L59.8129 62.4227L59.5229 62.3502L61.6979 58.6527ZM50.0254 61.5527C51.0404 61.1902 51.9104 60.8277 52.0554 60.8277C52.2004 60.7552 52.9979 61.1902 53.6504 61.6252L53.0704 61.8427C52.6354 61.7702 52.3454 61.6977 52.2729 61.6252C52.2004 61.6252 50.9679 61.8427 49.7354 62.1327C49.8079 61.9152 49.9529 61.7702 50.0254 61.5527V61.5527Z" fill="#1B141C"/>
<path d="M77.7192 58.4374L79.0242 62.4249L80.7642 63.1499L90.9867 61.4824L93.3792 62.2799L97.0767 64.6724C97.0767 64.6724 94.6117 60.8299 94.5392 60.5399C94.4667 60.3224 92.7267 57.5674 92.7267 57.5674L84.3167 58.0024L77.7192 58.4374V58.4374Z" fill="#2A232B"/>
<path d="M88.8114 61.8447L89.1014 61.7721L89.9714 59.6697L92.7264 57.6396L91.4214 58.0021L89.1739 59.3072C89.1014 59.3072 88.9564 60.8297 88.8114 61.8447V61.8447ZM86.7089 62.1346L86.8539 62.1346C86.7814 61.4821 86.7814 60.3946 86.7814 60.2496C86.7814 60.1046 86.3464 59.1621 85.9839 58.3646L85.7664 58.4371C86.0564 59.5971 86.4189 61.2646 86.7089 62.1346V62.1346ZM83.3739 62.7146L79.3139 58.6546L78.8789 58.6546C79.4589 59.6696 80.3289 61.0471 80.4739 61.1921C80.6189 61.2646 81.7789 62.0621 82.8664 62.7871L83.3739 62.7146V62.7146ZM83.3014 58.6546L83.1564 58.6546L84.2439 61.2646L85.1864 62.4246L85.4764 62.3521L83.3014 58.6546ZM94.9739 61.5546C93.9589 61.1921 93.0889 60.8296 92.9439 60.8296C92.7989 60.7571 92.0014 61.1921 91.3489 61.6271L91.9289 61.8447C92.3639 61.7722 92.6539 61.6996 92.7264 61.6271C92.7989 61.6271 94.0314 61.8446 95.2639 62.1346C95.1914 61.9171 95.0464 61.7721 94.9739 61.5546V61.5546Z" fill="#1B141C"/>
<path d="M100.847 75.1816L97.2222 76.8491L96.0622 81.4166L95.4097 88.0141L89.6097 91.2041L87.7972 85.1866L83.5197 84.5341L77.7197 85.1866L73.9497 86.9991H71.1222L67.3522 85.1866L61.5522 84.5341L57.2747 85.1866L55.4622 91.2041L49.6622 88.0141L49.0097 81.4166L47.8497 76.8491L44.2247 75.1816L41.3247 89.0291L42.4847 95.6991L62.9297 118.174H82.1422L102.587 95.7716L103.747 89.1016L103.167 78.5166L100.847 75.1816ZM79.5322 102.369L76.7772 103.384L75.1097 102.659V100.557H69.8897V102.659L68.2222 103.384L65.4672 102.369L60.1022 93.2341L60.8997 90.6966L64.5247 92.0741H70.2522L72.0647 91.4941H72.9347L74.7472 92.0741H80.4747L84.0997 90.6966L84.8972 93.2341L79.5322 102.369Z" fill="#2A232B"/>
<path d="M76.7772 103.384L75.1097 102.732L75.6172 110.054L76.9947 104.182L77.7922 110.924L78.1547 104.327L80.6922 103.312L81.0547 107.807L81.6347 102.369L81.9247 106.792L83.0847 99.6866L84.9697 95.3366L84.8972 93.3791L79.5322 102.514L76.7772 103.384V103.384ZM69.8897 102.732L68.2222 103.457L65.4672 102.442L61.6972 96.0616C62.7122 98.5266 64.5247 102.659 64.5247 102.659L65.6847 107.517L66.6272 103.819L68.0772 111.214L69.4547 104.399L70.1072 108.604L70.6872 104.544L71.0497 100.702H69.8172L69.8897 102.732V102.732ZM60.0297 93.2341L60.8272 90.6966L64.4522 92.0741H70.1797L71.9922 91.4941H72.8622L74.6747 92.0741H80.4022L84.0272 90.6966L84.8247 93.2341L84.6797 90.8416L86.4197 86.8541L83.9547 90.1891L80.1847 91.5666L74.8922 91.4941L72.2822 89.7541L69.5272 91.4941L63.8722 91.2041L59.8847 88.1591L60.1022 90.0441L57.1297 85.2591L60.0297 93.2341V93.2341ZM52.7797 97.4391C52.7072 96.9316 52.2722 92.0741 52.0547 89.3191L51.1122 88.8116C51.6922 91.9291 52.8522 97.9466 52.7797 97.4391ZM55.3897 91.2041L54.3747 90.6241L54.9547 93.5241L55.3897 91.2041V91.2041ZM53.7222 94.1766C53.7222 93.8866 53.7947 91.9291 53.8672 90.3341L52.4897 89.6091C52.9972 91.6391 53.7222 94.5391 53.7222 94.1766ZM50.2422 92.8716C50.2422 92.5816 50.4597 90.1891 50.6047 88.5941L49.5897 88.0141C49.5897 88.0141 50.2422 93.3791 50.2422 92.8716ZM90.9147 91.4941C90.9147 91.8566 92.0022 100.339 92.0022 100.339L92.2922 90.6241L93.1622 94.2491L93.8147 89.6091L94.4672 91.3491L94.8297 89.0291L95.4822 89.8991L95.2647 88.0866L89.4647 91.2766L89.7547 96.0616C89.8272 95.9891 90.9147 91.1316 90.9147 91.4941V91.4941ZM41.3247 89.0291L42.4847 97.8741L53.6497 110.199L62.8572 118.174H82.0697L91.4947 110.127L102.515 97.9466L103.675 89.1016C103.675 89.1016 102.225 94.5391 102.08 94.9016C101.862 95.2641 100.412 96.8591 100.412 96.8591V93.8141C100.412 93.8141 99.7597 97.1491 99.7597 97.4391C99.7597 97.7291 91.3497 105.994 91.3497 105.994C91.3497 105.994 91.0597 103.384 91.0597 103.094C91.0597 102.804 90.4072 107.009 90.4072 107.009L90.0447 101.644L89.1747 108.387L83.0122 113.824L82.7222 111.867L81.9247 114.549L72.2822 113.172L63.5097 114.259L57.4922 108.894L56.4047 105.124C56.4047 105.124 55.8972 107.154 55.8972 107.444C55.8972 107.734 54.0122 101.789 54.0122 101.789L54.3022 105.559L51.9822 103.022L50.0972 96.2066V101.209L45.0947 95.6266L43.2822 89.1016L44.0797 75.1816L41.9047 78.8066L41.3247 89.0291V89.0291Z" fill="#1B141C"/>
<path d="M74.1317 86.8127L70.8547 86.8417L69.3757 84.8769L66.6424 85.2177L65.3882 82.7962L68.2229 77.3877H76.7924L79.6634 82.8542L78.3512 85.2757L75.6977 84.7102L74.1317 86.8127Z" fill="#F0C7B1"/>
<path d="M76.7921 77.3877L79.3441 82.7889L78.2131 84.8769L76.2628 84.7247L76.4151 84.4129L78.4451 83.7169L75.9656 83.8692L74.0081 86.5734H71.0066L69.0491 83.8692L66.5696 83.7169L68.5996 84.4129L68.7518 84.7247L66.7943 84.8769L65.6706 82.7889L68.2226 77.3877L65.0688 82.8687L66.5696 85.5729L69.4261 85.1814L70.8543 87.1172H74.1603L75.5886 85.1814L78.4451 85.5729L79.9458 82.8687L76.7921 77.3877Z" fill="#D19271"/>
<path d="M67.5264 79.541L69.4911 82.7818L74.8271 82.8688L69.4476 83.2168L67.5264 79.541Z" fill="#D19271"/>
<path d="M69.0996 78.4465L70.5931 81.8612L74.8851 81.9917L76.0524 78.2725L69.0996 78.4465Z" fill="#F8D5C3"/>
<path d="M57.6375 39.513L48.575 45.6755L44.0075 67.208C44.0075 67.208 45.1675 90.553 45.0225 91.3505C44.805 92.148 38.715 102.588 38.715 102.588L42.7025 90.3355L40.5275 64.2355L40.745 87.943L38.3525 96.8605L39.3675 82.0705L38.2075 56.188L39.875 40.3105L46.1825 32.408L52.925 30.233L61.8425 20.1555L77.285 17.9805L98.6 27.8405C98.6 27.8405 106.14 46.2555 106.285 46.8355C106.503 47.4155 104.908 63.6555 104.908 63.6555L101.355 79.098L101.79 93.5255L105.343 105.198L98.2375 93.9605L96.6425 84.898L97.2225 94.613L99.3975 104.473L95.265 94.3955L93.67 79.7505L97.8025 48.938L91.8575 42.7755L86.3475 38.788L75.9075 40.963H64.1625L57.6375 39.513V39.513Z" fill="#543C32"/>
<path d="M70.9778 38.2806L70.8328 28.7831L81.9978 24.4331L92.2203 29.3631L97.2228 35.9606L97.8028 42.4131L95.4103 35.6706L89.9728 30.3781L80.7653 27.5506L73.3703 31.0306L70.9778 38.2806V38.2806ZM65.1053 39.6581L62.2053 36.3231L67.6428 27.7681L64.3078 36.0331L65.1053 39.6581ZM59.3778 29.8706L63.5828 23.0556L77.5753 18.8506L98.6003 27.9131L78.0103 20.4456L64.4528 24.6506L59.3778 29.8706V29.8706ZM100.775 41.9056L102.443 51.4031L98.2378 77.5031L99.4703 93.5981L102.153 98.6006L100.63 93.0181L100.195 77.2131L104.545 50.8231L100.775 41.9056V41.9056ZM54.5203 37.7006L44.4428 44.1531L42.0503 65.2506L45.9653 44.9506L54.5203 37.7006Z" fill="#5C453B"/>
<path d="M64.1627 40.8902L60.8277 36.6852L67.2077 26.8252L82.2877 23.3452L92.2202 28.5652L98.3102 35.3802L92.6552 27.9127L81.9252 22.1127L65.9752 25.9552L58.5077 36.6852L61.3352 40.3102L64.1627 40.8902V40.8902ZM57.6377 39.5127L55.3902 35.8877L62.2052 22.4752L77.2127 18.0527L61.7702 20.2277L52.9252 30.2327L53.3602 35.8877L57.6377 39.5127ZM52.1277 33.0602L41.7602 40.6727L39.8027 56.4777L40.3827 61.3352L40.8177 56.0427L43.2827 40.9627L52.1277 33.0602V33.0602ZM57.6377 39.5127L47.3427 45.0227L42.9202 66.9902L44.8777 83.0852L44.5152 66.1202L49.3002 45.8202L57.6377 39.5127V39.5127ZM98.2377 36.3952L100.123 47.9952L95.7002 75.4727L96.6427 84.8252L94.6852 76.0527L99.0352 47.4152L98.2377 36.3952V36.3952ZM75.8352 40.8902L75.9802 33.4952L83.3752 28.8552L94.1052 35.3077L97.8027 44.3702V48.7202L96.6427 43.7902L92.4377 35.9602L83.0852 31.2477L77.2127 34.5102L75.8352 40.8902V40.8902ZM86.3477 38.7152L89.9727 36.7577L94.1052 42.6302L95.4827 45.8927L93.0177 42.3402L89.6102 38.2802L86.3477 38.7152V38.7152Z" fill="#4C342A"/>
</g>
<defs>
<clipPath id="clip0_524_635">
<rect width="145" height="145" rx="72.5" fill="white"/>
</clipPath>
</defs>
</svg>
